<svg width="66" height="50" viewBox="0 0 66 50" fill="none" xmlns="http://www.w3.org/2000/svg">
<g id="Group 6">
<path id="Rectangle 1" d="M0.361328 8.92924C0.361328 5.99026 2.74384 3.60776 5.68281 3.60776C8.62179 3.60776 11.0043 5.99027 11.0043 8.92924V50.0002H5.36133C2.5999 50.0002 0.361328 47.7616 0.361328 45.0002V8.92924Z" fill="#0094FF"/>
<path id="Rectangle 2" d="M51.9386 8.92924C51.9386 5.99026 54.3211 3.60776 57.2601 3.60776C60.1991 3.60776 62.5816 5.99027 62.5816 8.92924V45.0002C62.5816 47.7616 60.343 50.0002 57.5816 50.0002H51.9386V8.92924Z" fill="#03A400"/>
<path id="Rectangle 3" d="M54.0678 3.53253C56.2604 1.61174 59.5928 1.82305 61.5253 4.0054C63.4844 6.21786 63.2547 9.60544 61.0148 11.5332L48.7319 22.1046L46.7214 9.96805L54.0678 3.53253Z" fill="#FFE600"/>
<path id="Union" fill-rule="evenodd" clip-rule="evenodd" d="M0.905677 5.6824C-0.749738 8.26001 -0.0719517 11.8041 2.4176 13.5882L33.7226 36.0224L33.7277 36.0171L48.7822 22.05L46.8338 9.8471L33.283 22.2453L8.38138 4.26578C5.90393 2.477 2.55694 3.11125 0.905677 5.6824Z" fill="#FF0909" fill-opacity="0.86"/>
</g>
</svg>
