<svg width="70" height="77" viewBox="0 0 70 77" fill="none" xmlns="http://www.w3.org/2000/svg">
<path id="Vector" d="M35 0.130432C25.5019 0.130432 24.3075 0.177986 20.5756 0.358693C16.8438 0.54891 14.3019 1.18614 12.075 2.12771C9.73807 3.08035 7.62187 4.57866 5.87563 6.51698C4.09237 8.41507 2.71392 10.7153 1.8375 13.2554C0.97125 15.6712 0.380625 18.4389 0.21 22.481C0.04375 26.5469 0 27.8404 0 38.1787C0 48.5075 0.04375 49.801 0.21 53.8573C0.385 57.909 0.97125 60.6719 1.8375 63.0924C2.73438 65.5938 3.92875 67.7147 5.87563 69.8308C7.81813 71.947 9.76937 73.25 12.0706 74.2201C14.3019 75.1617 16.8394 75.8037 20.5669 75.9891C24.3031 76.1698 25.4931 76.2174 35 76.2174C44.5069 76.2174 45.6925 76.1698 49.4288 75.9891C53.1519 75.7989 55.7025 75.1617 57.9294 74.2201C60.2647 73.2669 62.3794 71.7686 64.1244 69.8308C66.0712 67.7147 67.2656 65.5938 68.1625 63.0924C69.0244 60.6719 69.615 57.909 69.79 53.8573C69.9562 49.801 70 48.5075 70 38.1739C70 27.8404 69.9562 26.5469 69.79 22.4857C69.615 18.4389 69.0244 15.6712 68.1625 13.2554C67.2861 10.7153 65.9076 8.41507 64.1244 6.51698C62.3781 4.57866 60.2619 3.08035 57.925 2.12771C55.6937 1.18614 53.1475 0.544155 49.4244 0.358693C45.6881 0.177986 44.5025 0.130432 34.9912 0.130432H35ZM31.8631 6.98777H35.0044C44.3494 6.98777 45.4562 7.02106 49.1444 7.20652C52.5569 7.37296 54.4119 7.99592 55.6456 8.51426C57.2775 9.2038 58.4456 10.0312 59.6706 11.3628C60.8956 12.6943 61.6525 13.9592 62.2869 15.7378C62.7681 17.074 63.3369 19.0904 63.49 22.7996C63.6606 26.8084 63.6956 28.0115 63.6956 38.1644C63.6956 48.3173 63.6606 49.5251 63.49 53.534C63.3369 57.2432 62.7638 59.2548 62.2869 60.5958C61.7218 62.2455 60.8267 63.7381 59.6662 64.966C58.4412 66.2976 57.2775 67.1202 55.6413 67.8098C54.4163 68.3329 52.5612 68.9511 49.1444 69.1223C45.4562 69.303 44.3494 69.3458 35.0044 69.3458C25.6594 69.3458 24.5481 69.303 20.86 69.1223C17.4475 68.9511 15.5969 68.3329 14.3631 67.8098C12.8443 67.1976 11.4695 66.2262 10.3381 64.966C9.17557 63.7372 8.27894 62.2428 7.71313 60.591C7.23625 59.2548 6.66313 57.2385 6.51 53.5292C6.34375 49.5204 6.30875 48.3173 6.30875 38.1549C6.30875 27.9925 6.34375 26.7989 6.51 22.7901C6.6675 19.0808 7.23625 17.0645 7.7175 15.7235C8.35188 13.9497 9.11312 12.68 10.3381 11.3485C11.5631 10.017 12.7269 9.19429 14.3631 8.50475C15.5969 7.98166 17.4475 7.36345 20.86 7.19225C24.0888 7.03057 25.34 6.98301 31.8631 6.97826V6.98777ZM53.6856 13.303C53.1341 13.303 52.5879 13.4211 52.0784 13.6505C51.5688 13.8799 51.1058 14.2162 50.7158 14.6401C50.3258 15.064 50.0164 15.5673 49.8053 16.1212C49.5943 16.675 49.4856 17.2687 49.4856 17.8682C49.4856 18.4677 49.5943 19.0614 49.8053 19.6152C50.0164 20.1691 50.3258 20.6724 50.7158 21.0963C51.1058 21.5202 51.5688 21.8565 52.0784 22.0859C52.5879 22.3153 53.1341 22.4334 53.6856 22.4334C54.7995 22.4334 55.8678 21.9524 56.6555 21.0963C57.4431 20.2402 57.8856 19.079 57.8856 17.8682C57.8856 16.6574 57.4431 15.4963 56.6555 14.6401C55.8678 13.784 54.7995 13.303 53.6856 13.303ZM35.0044 18.6386C32.6203 18.5982 30.2527 19.0736 28.0393 20.0374C25.8259 21.0011 23.811 22.4338 22.1119 24.252C20.4128 26.0703 19.0635 28.2377 18.1424 30.6283C17.2214 33.0188 16.7471 35.5846 16.7471 38.1763C16.7471 40.768 17.2214 43.3338 18.1424 45.7243C19.0635 48.1148 20.4128 50.2823 22.1119 52.1006C23.811 53.9188 25.8259 55.3515 28.0393 56.3152C30.2527 57.2789 32.6203 57.7544 35.0044 57.714C39.723 57.634 44.2234 55.5404 47.5343 51.885C50.8451 48.2297 52.7008 43.3058 52.7008 38.1763C52.7008 33.0467 50.8451 28.1229 47.5343 24.4676C44.2234 20.8122 39.723 18.7186 35.0044 18.6386ZM35.0044 25.4912C36.5367 25.4912 38.0539 25.8192 39.4696 26.4566C40.8852 27.094 42.1715 28.0282 43.255 29.2059C44.3385 30.3836 45.1979 31.7817 45.7843 33.3204C46.3707 34.8592 46.6725 36.5084 46.6725 38.1739C46.6725 39.8394 46.3707 41.4886 45.7843 43.0274C45.1979 44.5661 44.3385 45.9643 43.255 47.142C42.1715 48.3197 40.8852 49.2539 39.4696 49.8912C38.0539 50.5286 36.5367 50.8567 35.0044 50.8567C31.9098 50.8567 28.942 49.5204 26.7538 47.142C24.5656 44.7635 23.3363 41.5376 23.3363 38.1739C23.3363 34.8102 24.5656 31.5843 26.7538 29.2059C28.942 26.8274 31.9098 25.4912 35.0044 25.4912Z" fill="black"/>
</svg>
